<mxfile host="app.diagrams.net" agent="Mozilla/5.0 (Windows NT 10.0; Win64; x64) AppleWebKit/537.36 (KHTML, like Gecko) Chrome/131.0.0.0 Safari/537.36" version="24.8.6">
  <diagram name="Page-1" id="tN0-TgmgbNYYwiSy7Src">
    <mxGraphModel>
      <root>
        <mxCell id="0" />
        <mxCell id="1" parent="0" />
        <mxCell id="2" value="MENU" style="whiteSpace=wrap;strokeWidth=2;" vertex="1" parent="1">
          <mxGeometry x="1305" y="8" width="101" height="48" as="geometry" />
        </mxCell>
        <mxCell id="3" value="FileOperations" style="whiteSpace=wrap;strokeWidth=2;" vertex="1" parent="1">
          <mxGeometry x="351" y="106" width="164" height="48" as="geometry" />
        </mxCell>
        <mxCell id="4" value="CompressionOptions" style="whiteSpace=wrap;strokeWidth=2;" vertex="1" parent="1">
          <mxGeometry x="967" y="106" width="205" height="48" as="geometry" />
        </mxCell>
        <mxCell id="5" value="FileSearch" style="whiteSpace=wrap;strokeWidth=2;" vertex="1" parent="1">
          <mxGeometry x="1288" y="106" width="134" height="48" as="geometry" />
        </mxCell>
        <mxCell id="6" value="FileInformation" style="whiteSpace=wrap;strokeWidth=2;" vertex="1" parent="1">
          <mxGeometry x="1602" y="106" width="170" height="48" as="geometry" />
        </mxCell>
        <mxCell id="7" value="Exit" style="whiteSpace=wrap;strokeWidth=2;" vertex="1" parent="1">
          <mxGeometry x="1823" y="106" width="88" height="48" as="geometry" />
        </mxCell>
        <mxCell id="8" value="CreateFile" style="whiteSpace=wrap;strokeWidth=2;" vertex="1" parent="1">
          <mxGeometry x="8" y="205" width="134" height="48" as="geometry" />
        </mxCell>
        <mxCell id="9" value="DeleteFile" style="whiteSpace=wrap;strokeWidth=2;" vertex="1" parent="1">
          <mxGeometry x="192" y="205" width="134" height="48" as="geometry" />
        </mxCell>
        <mxCell id="10" value="EditFile" style="whiteSpace=wrap;strokeWidth=2;" vertex="1" parent="1">
          <mxGeometry x="376" y="205" width="115" height="48" as="geometry" />
        </mxCell>
        <mxCell id="11" value="RenameFile" style="whiteSpace=wrap;strokeWidth=2;" vertex="1" parent="1">
          <mxGeometry x="541" y="205" width="143" height="48" as="geometry" />
        </mxCell>
        <mxCell id="12" value="ViewAllFiles" style="whiteSpace=wrap;strokeWidth=2;" vertex="1" parent="1">
          <mxGeometry x="734" y="205" width="147" height="48" as="geometry" />
        </mxCell>
        <mxCell id="13" value="ZipFile" style="whiteSpace=wrap;strokeWidth=2;" vertex="1" parent="1">
          <mxGeometry x="931" y="205" width="109" height="48" as="geometry" />
        </mxCell>
        <mxCell id="14" value="UnzipFile" style="whiteSpace=wrap;strokeWidth=2;" vertex="1" parent="1">
          <mxGeometry x="1090" y="205" width="127" height="48" as="geometry" />
        </mxCell>
        <mxCell id="15" value="ByFileName" style="whiteSpace=wrap;strokeWidth=2;" vertex="1" parent="1">
          <mxGeometry x="1283" y="205" width="144" height="48" as="geometry" />
        </mxCell>
        <mxCell id="16" value="ViewFileProperties" style="whiteSpace=wrap;strokeWidth=2;" vertex="1" parent="1">
          <mxGeometry x="1477" y="205" width="194" height="48" as="geometry" />
        </mxCell>
        <mxCell id="17" value="CheckFileSize" style="whiteSpace=wrap;strokeWidth=2;" vertex="1" parent="1">
          <mxGeometry x="1722" y="205" width="158" height="48" as="geometry" />
        </mxCell>
        <mxCell id="18" value="" style="curved=1;startArrow=none;endArrow=block;exitX=0;exitY=0.56;entryX=0.5;entryY=0.01;" edge="1" parent="1" source="2" target="3">
          <mxGeometry relative="1" as="geometry">
            <Array as="points">
              <mxPoint x="433" y="81" />
            </Array>
          </mxGeometry>
        </mxCell>
        <mxCell id="19" value="" style="curved=1;startArrow=none;endArrow=block;exitX=0;exitY=0.69;entryX=0.5;entryY=0.01;" edge="1" parent="1" source="2" target="4">
          <mxGeometry relative="1" as="geometry">
            <Array as="points">
              <mxPoint x="1069" y="81" />
            </Array>
          </mxGeometry>
        </mxCell>
        <mxCell id="20" value="" style="curved=1;startArrow=none;endArrow=block;exitX=0.5;exitY=1.01;entryX=0.5;entryY=0.01;" edge="1" parent="1" source="2" target="5">
          <mxGeometry relative="1" as="geometry">
            <Array as="points" />
          </mxGeometry>
        </mxCell>
        <mxCell id="21" value="" style="curved=1;startArrow=none;endArrow=block;exitX=1;exitY=0.66;entryX=0.5;entryY=0.01;" edge="1" parent="1" source="2" target="6">
          <mxGeometry relative="1" as="geometry">
            <Array as="points">
              <mxPoint x="1688" y="81" />
            </Array>
          </mxGeometry>
        </mxCell>
        <mxCell id="22" value="" style="curved=1;startArrow=none;endArrow=block;exitX=1;exitY=0.61;entryX=0.49;entryY=0.01;" edge="1" parent="1" source="2" target="7">
          <mxGeometry relative="1" as="geometry">
            <Array as="points">
              <mxPoint x="1867" y="81" />
            </Array>
          </mxGeometry>
        </mxCell>
        <mxCell id="23" value="" style="curved=1;startArrow=none;endArrow=block;exitX=0;exitY=0.75;entryX=0.5;entryY=0;" edge="1" parent="1" source="3" target="8">
          <mxGeometry relative="1" as="geometry">
            <Array as="points">
              <mxPoint x="75" y="180" />
            </Array>
          </mxGeometry>
        </mxCell>
        <mxCell id="24" value="" style="curved=1;startArrow=none;endArrow=block;exitX=0;exitY=1;entryX=0.5;entryY=0;" edge="1" parent="1" source="3" target="9">
          <mxGeometry relative="1" as="geometry">
            <Array as="points">
              <mxPoint x="259" y="180" />
            </Array>
          </mxGeometry>
        </mxCell>
        <mxCell id="25" value="" style="curved=1;startArrow=none;endArrow=block;exitX=0.5;exitY=1.02;entryX=0.5;entryY=0;" edge="1" parent="1" source="3" target="10">
          <mxGeometry relative="1" as="geometry">
            <Array as="points" />
          </mxGeometry>
        </mxCell>
        <mxCell id="26" value="" style="curved=1;startArrow=none;endArrow=block;exitX=1;exitY=0.98;entryX=0.5;entryY=0;" edge="1" parent="1" source="3" target="11">
          <mxGeometry relative="1" as="geometry">
            <Array as="points">
              <mxPoint x="612" y="180" />
            </Array>
          </mxGeometry>
        </mxCell>
        <mxCell id="27" value="" style="curved=1;startArrow=none;endArrow=block;exitX=1;exitY=0.74;entryX=0.5;entryY=0;" edge="1" parent="1" source="3" target="12">
          <mxGeometry relative="1" as="geometry">
            <Array as="points">
              <mxPoint x="807" y="180" />
            </Array>
          </mxGeometry>
        </mxCell>
        <mxCell id="28" value="" style="curved=1;startArrow=none;endArrow=block;exitX=0.3;exitY=1.02;entryX=0.5;entryY=0;" edge="1" parent="1" source="4" target="13">
          <mxGeometry relative="1" as="geometry">
            <Array as="points">
              <mxPoint x="985" y="180" />
            </Array>
          </mxGeometry>
        </mxCell>
        <mxCell id="29" value="" style="curved=1;startArrow=none;endArrow=block;exitX=0.7;exitY=1.02;entryX=0.49;entryY=0;" edge="1" parent="1" source="4" target="14">
          <mxGeometry relative="1" as="geometry">
            <Array as="points">
              <mxPoint x="1153" y="180" />
            </Array>
          </mxGeometry>
        </mxCell>
        <mxCell id="30" value="" style="curved=1;startArrow=none;endArrow=block;exitX=0.5;exitY=1.02;entryX=0.5;entryY=0;" edge="1" parent="1" source="5" target="15">
          <mxGeometry relative="1" as="geometry">
            <Array as="points" />
          </mxGeometry>
        </mxCell>
        <mxCell id="31" value="" style="curved=1;startArrow=none;endArrow=block;exitX=0.18;exitY=1.02;entryX=0.5;entryY=0;" edge="1" parent="1" source="6" target="16">
          <mxGeometry relative="1" as="geometry">
            <Array as="points">
              <mxPoint x="1574" y="180" />
            </Array>
          </mxGeometry>
        </mxCell>
        <mxCell id="32" value="" style="curved=1;startArrow=none;endArrow=block;exitX=0.83;exitY=1.02;entryX=0.5;entryY=0;" edge="1" parent="1" source="6" target="17">
          <mxGeometry relative="1" as="geometry">
            <Array as="points">
              <mxPoint x="1801" y="180" />
            </Array>
          </mxGeometry>
        </mxCell>
      </root>
    </mxGraphModel>
  </diagram>
</mxfile>
